<svg xmlns="http://www.w3.org/2000/svg" xml:space="preserve" width="800" height="800" viewBox="0 0 492 492"><path d="M484.088 292.46c-5.1-5.128-11.968-8.076-19.156-8.076l.172.036H330.588c-14.832 0-26.864 12.308-26.864 27.132v22.788c0 7.16 2.784 13.908 7.88 19 5.088 5.092 11.836 7.9 18.992 7.9l39.088.004c-32.072 34.348-76.7 53.888-123.708 53.888-93.256 0-169.132-75.876-169.132-169.132S152.716 76.868 245.972 76.868c69.824 0 133.388 43.836 158.172 109.084 5.636 14.82 20.076 24.784 35.924 24.784 4.66 0 9.248-.852 13.636-2.52 19.808-7.52 29.796-29.76 22.268-49.568C439.932 63.772 347.504.024 245.976.024 110.344.024 0 110.368 0 246s110.184 245.976 245.816 245.976c62.608 0 123.232-24.64 169.336-67.9v21.796c0 14.832 12.392 26.824 27.22 26.824h22.792c14.828 0 26.836-11.992 26.836-26.824V311.648c0-7.18-2.796-14.1-7.912-19.188z"/><path d="m361.06 179.392-11.068-11.072c-2.86-2.86-6.676-4.436-10.744-4.436s-7.884 1.58-10.736 4.436L221.228 275.604l-64.792-64.792a15.084 15.084 0 0 0-10.736-4.436c-4.068 0-7.88 1.58-10.74 4.436l-11.08 11.068c-5.912 5.92-5.912 15.56 0 21.48l86.612 86.604c2.856 2.856 6.668 4.432 10.736 4.432s7.88-1.58 10.812-4.512l129.02-129.02c5.924-5.92 5.924-15.552 0-21.472z"/></svg>