<?xml version="1.0" standalone="no"?>
<!DOCTYPE svg PUBLIC "-//W3C//DTD SVG 20010904//EN"
 "http://www.w3.org/TR/2001/REC-SVG-20010904/DTD/svg10.dtd">
<svg version="1.0" xmlns="http://www.w3.org/2000/svg"
 width="805.000000pt" height="805.000000pt" viewBox="0 0 805.000000 805.000000"
 preserveAspectRatio="xMidYMid meet">
<metadata>
Created by potrace 1.14, written by Peter Selinger 2001-2017
</metadata>
<g transform="translate(0.000000,805.000000) scale(0.100000,-0.100000)"
fill="#000000" stroke="none">
<path d="M3710 7999 c-413 -39 -615 -78 -935 -181 -441 -141 -890 -388 -1300
-717 -149 -119 -411 -379 -536 -531 -442 -538 -733 -1155 -853 -1812 -53 -286
-61 -382 -61 -728 0 -179 3 -359 7 -400 27 -275 90 -596 164 -833 159 -507
522 -1129 875 -1502 36 -38 79 -84 95 -101 16 -18 74 -74 130 -125 374 -349
836 -634 1322 -815 156 -58 404 -135 478 -147 16 -3 90 -17 164 -30 382 -71
821 -89 1190 -47 93 10 352 51 420 65 14 3 47 10 73 15 108 22 419 121 591
190 132 52 443 211 582 298 565 351 1013 811 1349 1387 240 409 402 852 479
1310 103 604 72 1262 -84 1812 -149 530 -401 1009 -762 1455 -114 141 -399
426 -538 539 -485 392 -1010 653 -1604 799 -88 21 -179 42 -201 44 -22 3 -58
8 -80 11 -22 3 -49 7 -60 10 -12 2 -112 14 -224 25 -213 21 -515 25 -681 9z
m465 -659 c169 -9 226 -14 285 -25 14 -3 50 -7 80 -11 214 -22 599 -142 881
-273 858 -400 1478 -1108 1766 -2016 111 -350 154 -629 153 -1010 0 -537 -110
-1008 -349 -1492 -264 -535 -708 -1022 -1221 -1340 -116 -71 -373 -205 -472
-244 -56 -22 -275 -99 -282 -99 -3 0 -6 296 -8 657 -4 643 -4 660 -26 737 -28
101 -90 228 -140 288 -21 25 -71 75 -110 109 -39 35 -70 65 -68 67 2 2 68 12
147 22 120 17 239 37 369 66 14 3 36 7 50 10 63 13 268 87 364 132 465 220
677 552 737 1157 14 144 7 394 -15 520 -47 263 -159 511 -312 691 l-44 52 15
48 c28 92 44 172 56 283 20 184 -12 386 -90 571 -17 41 -35 80 -39 86 -12 19
-226 -2 -358 -36 -150 -38 -328 -125 -537 -262 l-150 -99 -141 25 c-198 35
-295 46 -486 55 -285 14 -628 -9 -895 -59 -55 -11 -112 -21 -128 -24 -22 -4
-56 15 -180 97 -319 214 -532 294 -820 310 l-78 4 -25 -49 c-39 -77 -82 -215
-99 -318 -28 -173 -18 -348 31 -539 27 -107 33 -86 -59 -203 -222 -283 -321
-661 -288 -1108 21 -280 68 -472 164 -665 80 -162 169 -267 319 -380 240 -181
592 -301 1061 -361 75 -10 137 -20 137 -23 0 -4 -25 -26 -56 -51 -31 -25 -80
-75 -109 -112 -51 -65 -127 -205 -141 -262 -4 -19 -17 -33 -40 -42 -130 -54
-413 -81 -534 -50 -175 44 -287 134 -472 378 -201 266 -333 346 -549 336 -64
-2 -83 -7 -100 -24 -14 -15 -19 -28 -15 -42 4 -11 75 -80 158 -153 197 -173
251 -247 349 -479 38 -91 144 -244 211 -305 128 -116 287 -184 478 -205 93
-11 124 -9 275 10 93 12 173 24 177 26 5 3 8 -195 8 -440 0 -245 -2 -446 -3
-446 -2 0 -51 16 -108 36 -800 275 -1478 873 -1863 1644 -257 515 -368 1016
-353 1590 16 582 178 1132 480 1635 332 554 816 993 1404 1276 185 89 258 118
453 180 297 95 532 136 875 152 33 2 69 4 80 5 11 1 101 -3 200 -8z"/>
</g>
</svg>
